<?xml version="1.0" encoding="UTF-8" standalone="no"?>
<!DOCTYPE svg PUBLIC "-//W3C//DTD SVG 1.1//EN"
 "http://www.w3.org/Graphics/SVG/1.1/DTD/svg11.dtd">
<!-- Generated by graphviz version 12.2.1 (20241206.2353)
 -->
<!-- Title: CastleHierarchy Pages: 1 -->
<svg width="527pt" height="499pt"
 viewBox="0.00 0.00 526.81 498.50" xmlns="http://www.w3.org/2000/svg" xmlns:xlink="http://www.w3.org/1999/xlink">
<g id="graph0" class="graph" transform="scale(1 1) rotate(0) translate(4 494.5)">
<title>CastleHierarchy</title>
<polygon fill="white" stroke="none" points="-4,4 -4,-494.5 522.81,-494.5 522.81,4 -4,4"/>
<!-- symbol -->
<g id="node1" class="node">
<title>symbol</title>
<g id="a_node1"><a xlink:href="https://commons.wikimedia.org/wiki/File:Castle_(color).svg" xlink:title="Symbol">
<polygon fill="lightgrey" stroke="black" points="377,-490.5 161,-490.5 161,-274.5 377,-274.5 377,-490.5"/>
<image xlink:href="Castle-Icon.png" width="129.032px" height="216px" preserveAspectRatio="xMinYMin meet" x="204.484" y="-490.5"/>
<text text-anchor="middle" x="269" y="-370.88" font-family="Times,serif" font-size="30.00" fill="white">Symbol</text>
</a>
</g>
</g>
<!-- thing -->
<g id="node2" class="node">
<title>thing</title>
<g id="a_node2"><a xlink:href="https://www.wikidata.org/wiki/Q4152" xlink:title="Thing">
<polygon fill="lightgrey" stroke="black" points="216,-216 0,-216 0,0 216,0 216,-216"/>
<image xlink:href="Schloss_Neuschwanstein_2013.jpg" width="216px" height="127.722px" preserveAspectRatio="xMinYMin meet" x="0" y="-171.861"/>
<text text-anchor="middle" x="108" y="-96.38" font-family="Times,serif" font-size="30.00" fill="white">Thing</text>
</a>
</g>
</g>
<!-- symbol&#45;&gt;thing -->
<g id="edge1" class="edge">
<title>symbol&#45;&gt;thing</title>
<path fill="none" stroke="blue" d="M160.93,-324.37C136.77,-306.11 114.32,-283.48 100.75,-256.5 96.23,-247.51 93.27,-237.82 91.49,-227.84"/>
<polygon fill="blue" stroke="blue" points="94.96,-227.42 90.17,-217.98 88.03,-228.35 94.96,-227.42"/>
<text text-anchor="middle" x="139.38" y="-237.5" font-family="Times,serif" font-size="20.00" fill="blue">stands for</text>
</g>
<!-- thought -->
<g id="node3" class="node">
<title>thought</title>
<g id="a_node3"><a xlink:href="https://www.wikidata.org/wiki/Q124652827" xlink:title="Thought">
<polygon fill="lightgrey" stroke="black" points="516,-216 300,-216 300,0 516,0 516,-216"/>
<image xlink:href="Cinderella_Castle_2013_Wade.jpg" width="152.332px" height="216px" preserveAspectRatio="xMinYMin meet" x="331.834" y="-216"/>
<text text-anchor="middle" x="408" y="-96.38" font-family="Times,serif" font-size="30.00" fill="white">Thought</text>
</a>
</g>
</g>
<!-- symbol&#45;&gt;thought -->
<g id="edge3" class="edge">
<title>symbol&#45;&gt;thought</title>
<path fill="none" stroke="blue" d="M320.17,-274.06C326.83,-260.53 333.64,-246.91 340.25,-234 341.55,-231.45 342.88,-228.88 344.22,-226.29"/>
<polygon fill="blue" stroke="blue" points="347.25,-228.05 348.77,-217.56 341.04,-224.82 347.25,-228.05"/>
<text text-anchor="middle" x="367.62" y="-237.5" font-family="Times,serif" font-size="20.00" fill="blue">evokes</text>
</g>
<!-- thing&#45;&gt;symbol -->
<g id="edge2" class="edge">
<title>thing&#45;&gt;symbol</title>
<path fill="none" stroke="blue" d="M171.34,-216.21C180.67,-232 190.32,-248.33 199.76,-264.3"/>
<polygon fill="blue" stroke="blue" points="196.73,-266.06 204.83,-272.89 202.76,-262.5 196.73,-266.06"/>
<text text-anchor="middle" x="251.45" y="-237.5" font-family="Times,serif" font-size="20.00" fill="blue">represented by</text>
</g>
<!-- thing&#45;&gt;thought -->
<g id="edge5" class="edge">
<title>thing&#45;&gt;thought</title>
<path fill="none" stroke="blue" d="M216.4,-83.86C220.18,-83.34 223.93,-82.89 227.62,-82.5 251.54,-79.98 259.75,-79.7 288.15,-82.63"/>
<polygon fill="blue" stroke="blue" points="287.78,-86.11 298.09,-83.69 288.52,-79.15 287.78,-86.11"/>
<text text-anchor="middle" x="258" y="-86" font-family="Times,serif" font-size="20.00" fill="blue">inspires</text>
</g>
<!-- thought&#45;&gt;symbol -->
<g id="edge4" class="edge">
<title>thought&#45;&gt;symbol</title>
<path fill="none" stroke="blue" d="M407.43,-216.49C404.81,-230.36 400.84,-244.05 395,-256.5 391.75,-263.43 387.94,-270.2 383.71,-276.77"/>
<polygon fill="blue" stroke="blue" points="380.84,-274.76 378.09,-284.99 386.62,-278.71 380.84,-274.76"/>
<text text-anchor="middle" x="461.06" y="-237.5" font-family="Times,serif" font-size="20.00" fill="blue">symbolized by</text>
</g>
<!-- thought&#45;&gt;thing -->
<g id="edge6" class="edge">
<title>thought&#45;&gt;thing</title>
<path fill="none" stroke="blue" d="M299.6,-108C276.2,-108 251.33,-108 227.52,-108"/>
<polygon fill="blue" stroke="blue" points="227.82,-104.5 217.82,-108 227.82,-111.5 227.82,-104.5"/>
<text text-anchor="middle" x="258" y="-114.5" font-family="Times,serif" font-size="20.00" fill="blue">refers to</text>
</g>
</g>
</svg>
