<?xml version="1.0" encoding="UTF-8" standalone="no"?>
<!DOCTYPE svg PUBLIC "-//W3C//DTD SVG 1.1//EN"
 "http://www.w3.org/Graphics/SVG/1.1/DTD/svg11.dtd">
<!-- Generated by graphviz version 2.43.0 (0)
 -->
<!-- Title: links Pages: 1 -->
<svg width="550pt" height="160pt"
 viewBox="0.00 0.00 550.00 160.00" xmlns="http://www.w3.org/2000/svg" xmlns:xlink="http://www.w3.org/1999/xlink">
<g id="graph0" class="graph" transform="scale(1 1) rotate(0) translate(4 156)">
<title>links</title>
<polygon fill="white" stroke="transparent" points="-4,4 -4,-156 546,-156 546,4 -4,4"/>
<!-- scholar -->
<g id="node1" class="node">
<title>scholar</title>
<g id="a_node1"><a xlink:href="https://www.wikidata.org/wiki/Q5" xlink:title="scholar">
<polygon fill="none" stroke="black" points="542,-47 475,-47 475,-11 542,-11 542,-47"/>
<text text-anchor="middle" x="508.5" y="-25.3" font-family="Helvetica,sans-Serif" font-size="14.00">scholar</text>
</a>
</g>
</g>
<!-- institution -->
<g id="node2" class="node">
<title>institution</title>
<g id="a_node2"><a xlink:href="https://www.wikidata.org/wiki/Q4671277" xlink:title="institution">
<polygon fill="none" stroke="black" points="345.5,-43 259.5,-43 259.5,-7 345.5,-7 345.5,-43"/>
<text text-anchor="middle" x="302.5" y="-21.3" font-family="Helvetica,sans-Serif" font-size="14.00">institution</text>
</a>
</g>
</g>
<!-- scholar&#45;&gt;institution -->
<g id="edge3" class="edge">
<title>scholar&#45;&gt;institution</title>
<g id="a_edge3"><a xlink:href="https://www.wikidata.org/wiki/Property:P1416" xlink:title="affiliation">
<path fill="none" stroke="black" d="M474.91,-26.81C468.96,-26.48 462.79,-26.19 457,-26 423.29,-24.89 385.38,-24.63 355.68,-24.66"/>
<polygon fill="black" stroke="black" points="355.53,-21.16 345.53,-24.68 355.54,-28.16 355.53,-21.16"/>
</a>
</g>
<g id="a_edge3&#45;label"><a xlink:href="https://www.wikidata.org/wiki/Property:P1416" xlink:title="affiliation">
<text text-anchor="middle" x="414" y="-29.8" font-family="Helvetica,sans-Serif" font-size="14.00">affiliation</text>
</a>
</g>
</g>
<!-- paper -->
<g id="node3" class="node">
<title>paper</title>
<g id="a_node3"><a xlink:href="https://www.wikidata.org/wiki/Q13442814" xlink:title="paper">
<polygon fill="none" stroke="black" points="537,-119 480,-119 480,-83 537,-83 537,-119"/>
<text text-anchor="middle" x="508.5" y="-97.3" font-family="Helvetica,sans-Serif" font-size="14.00">paper</text>
</a>
</g>
</g>
<!-- paper&#45;&gt;scholar -->
<g id="edge2" class="edge">
<title>paper&#45;&gt;scholar</title>
<g id="a_edge2"><a xlink:href="https://www.wikidata.org/wiki/Property:P50" xlink:title="author">
<path fill="none" stroke="black" d="M508.5,-82.59C508.5,-74.94 508.5,-65.89 508.5,-57.43"/>
<polygon fill="black" stroke="black" points="512,-57.17 508.5,-47.17 505,-57.17 512,-57.17"/>
</a>
</g>
<g id="a_edge2&#45;label"><a xlink:href="https://www.wikidata.org/wiki/Property:P50" xlink:title="author">
<text text-anchor="middle" x="519" y="-61.3" font-family="Helvetica,sans-Serif" font-size="14.00">author</text>
</a>
</g>
</g>
<!-- paper&#45;&gt;paper -->
<g id="edge4" class="edge">
<title>paper&#45;&gt;paper</title>
<g id="a_edge4"><a xlink:href="https://www.wikidata.org/wiki/Property:P2860" xlink:title="cites">
<path fill="none" stroke="black" d="M525.51,-119.15C528.12,-128.54 522.45,-137 508.5,-137 500,-137 494.57,-133.86 492.22,-129.28"/>
<polygon fill="black" stroke="black" points="495.7,-128.88 491.49,-119.15 488.72,-129.38 495.7,-128.88"/>
</a>
</g>
<g id="a_edge4&#45;label"><a xlink:href="https://www.wikidata.org/wiki/Property:P2860" xlink:title="cites">
<text text-anchor="middle" x="508.5" y="-140.8" font-family="Helvetica,sans-Serif" font-size="14.00">cites</text>
</a>
</g>
</g>
<!-- proceedings -->
<g id="node4" class="node">
<title>proceedings</title>
<g id="a_node4"><a xlink:href="https://www.wikidata.org/wiki/Q1143604" xlink:title="proceedings">
<polygon fill="none" stroke="blue" stroke-width="2" points="353,-108 252,-108 252,-72 353,-72 353,-108"/>
<text text-anchor="middle" x="302.5" y="-86.3" font-family="Helvetica,sans-Serif" font-size="14.00" fill="blue">proceedings</text>
</a>
</g>
</g>
<!-- paper&#45;&gt;proceedings -->
<g id="edge5" class="edge">
<title>paper&#45;&gt;proceedings</title>
<g id="a_edge5"><a xlink:href="https://www.wikidata.org/wiki/Property:P1433" xlink:title="published in">
<path fill="none" stroke="black" d="M479.99,-99.52C450.24,-97.91 401.9,-95.31 363.32,-93.23"/>
<polygon fill="black" stroke="black" points="363.41,-89.73 353.24,-92.68 363.03,-96.72 363.41,-89.73"/>
</a>
</g>
<g id="a_edge5&#45;label"><a xlink:href="https://www.wikidata.org/wiki/Property:P1433" xlink:title="published in">
<text text-anchor="middle" x="414" y="-101.8" font-family="Helvetica,sans-Serif" font-size="14.00">published in</text>
</a>
</g>
</g>
<!-- proceedings&#45;&gt;scholar -->
<g id="edge1" class="edge">
<title>proceedings&#45;&gt;scholar</title>
<g id="a_edge1"><a xlink:href="https://www.wikidata.org/wiki/Property:P98" xlink:title="editor">
<path fill="none" stroke="black" d="M353.34,-75.1C387.58,-64.86 432.53,-51.42 465.06,-41.69"/>
<polygon fill="black" stroke="black" points="466.15,-45.02 474.72,-38.8 464.14,-38.31 466.15,-45.02"/>
</a>
</g>
<g id="a_edge1&#45;label"><a xlink:href="https://www.wikidata.org/wiki/Property:P98" xlink:title="editor">
<text text-anchor="middle" x="414" y="-72.8" font-family="Helvetica,sans-Serif" font-size="14.00">editor</text>
</a>
</g>
</g>
<!-- event -->
<g id="node6" class="node">
<title>event</title>
<g id="a_node6"><a xlink:href="https://www.wikidata.org/wiki/Q2020153" xlink:title="event">
<polygon fill="none" stroke="blue" stroke-width="2" points="76.5,-108 20.5,-108 20.5,-72 76.5,-72 76.5,-108"/>
<text text-anchor="middle" x="48.5" y="-86.3" font-family="Helvetica,sans-Serif" font-size="14.00" fill="blue">event</text>
</a>
</g>
</g>
<!-- proceedings&#45;&gt;event -->
<g id="edge7" class="edge">
<title>proceedings&#45;&gt;event</title>
<g id="a_edge7"><a xlink:href="https://www.wikidata.org/wiki/Property:P4745" xlink:title="is proceedings of">
<path fill="none" stroke="blue" stroke-width="2" d="M251.71,-90C203.21,-90 130.58,-90 86.84,-90"/>
<polygon fill="blue" stroke="blue" stroke-width="2" points="86.64,-86.5 76.64,-90 86.64,-93.5 86.64,-86.5"/>
</a>
</g>
<g id="a_edge7&#45;label"><a xlink:href="https://www.wikidata.org/wiki/Property:P4745" xlink:title="is proceedings of">
<text text-anchor="middle" x="174.5" y="-93.8" font-family="Helvetica,sans-Serif" font-size="14.00" fill="blue">is proceedings of</text>
</a>
</g>
</g>
<!-- eventseries -->
<g id="node5" class="node">
<title>eventseries</title>
<g id="a_node5"><a xlink:href="https://www.wikidata.org/wiki/Q47258130" xlink:title="eventseries">
<polygon fill="none" stroke="blue" stroke-width="2" points="97,-36 0,-36 0,0 97,0 97,-36"/>
<text text-anchor="middle" x="48.5" y="-14.3" font-family="Helvetica,sans-Serif" font-size="14.00" fill="blue">eventseries</text>
</a>
</g>
</g>
<!-- event&#45;&gt;eventseries -->
<g id="edge6" class="edge">
<title>event&#45;&gt;eventseries</title>
<g id="a_edge6"><a xlink:href="https://www.wikidata.org/wiki/Property:P179" xlink:title="part of the series">
<path fill="none" stroke="blue" stroke-width="2" d="M48.5,-71.59C48.5,-63.94 48.5,-54.89 48.5,-46.43"/>
<polygon fill="blue" stroke="blue" stroke-width="2" points="52,-46.17 48.5,-36.17 45,-46.17 52,-46.17"/>
</a>
</g>
<g id="a_edge6&#45;label"><a xlink:href="https://www.wikidata.org/wiki/Property:P179" xlink:title="part of the series">
<text text-anchor="middle" x="59" y="-50.3" font-family="Helvetica,sans-Serif" font-size="14.00" fill="blue">part of the series</text>
</a>
</g>
</g>
</g>
</svg>
