<?xml version="1.0" encoding="UTF-8" standalone="no"?>
<!DOCTYPE svg PUBLIC "-//W3C//DTD SVG 1.1//EN"
 "http://www.w3.org/Graphics/SVG/1.1/DTD/svg11.dtd">
<!-- Generated by graphviz version 2.43.0 (0)
 -->
<!-- Title: links Pages: 1 -->
<svg width="499pt" height="209pt"
 viewBox="0.00 0.00 499.00 209.26" xmlns="http://www.w3.org/2000/svg" xmlns:xlink="http://www.w3.org/1999/xlink">
<g id="graph0" class="graph" transform="scale(1 1) rotate(0) translate(4 205.26)">
<title>links</title>
<polygon fill="white" stroke="transparent" points="-4,4 -4,-205.26 495,-205.26 495,4 -4,4"/>
<!-- researcher -->
<g id="node1" class="node">
<title>researcher</title>
<g id="a_node1"><a xlink:href="https://www.wikidata.org/wiki/Q5" xlink:title="researcher">
<polygon fill="none" stroke="blue" stroke-width="2" points="491,-63.26 401,-63.26 401,-27.26 491,-27.26 491,-63.26"/>
<text text-anchor="middle" x="446" y="-41.56" font-family="Helvetica,sans-Serif" font-size="14.00" fill="blue">researcher</text>
</a>
</g>
</g>
<!-- researcher&#45;&gt;researcher -->
<g id="edge2" class="edge">
<title>researcher&#45;&gt;researcher</title>
<g id="a_edge2"><a xlink:href="https://www.wikidata.org/wiki/Property:P50" xlink:title="co&#45;author">
<path fill="none" stroke="blue" stroke-width="2" d="M465.54,-63.42C468.54,-72.8 462.03,-81.26 446,-81.26 436.23,-81.26 430,-78.12 427.3,-73.54"/>
<polygon fill="blue" stroke="blue" stroke-width="2" points="430.77,-73.09 426.46,-63.42 423.8,-73.67 430.77,-73.09"/>
</a>
</g>
<g id="a_edge2&#45;label"><a xlink:href="https://www.wikidata.org/wiki/Property:P50" xlink:title="co&#45;author">
<text text-anchor="middle" x="446" y="-85.06" font-family="Helvetica,sans-Serif" font-size="14.00" fill="blue">co&#45;author</text>
</a>
</g>
</g>
<!-- institution -->
<g id="node2" class="node">
<title>institution</title>
<g id="a_node2"><a xlink:href="https://www.wikidata.org/wiki/Q4671277" xlink:title="institution">
<polygon fill="none" stroke="blue" stroke-width="2" points="86,-51.26 0,-51.26 0,-15.26 86,-15.26 86,-51.26"/>
<text text-anchor="middle" x="43" y="-29.56" font-family="Helvetica,sans-Serif" font-size="14.00" fill="blue">institution</text>
</a>
</g>
</g>
<!-- researcher&#45;&gt;institution -->
<g id="edge3" class="edge">
<title>researcher&#45;&gt;institution</title>
<g id="a_edge3"><a xlink:href="https://www.wikidata.org/wiki/Property:P1416" xlink:title="affiliation">
<path fill="none" stroke="blue" stroke-width="2" d="M400.73,-31.43C366.09,-21.35 316.5,-8.59 272,-3.26 234.05,1.28 224.02,0.71 186,-3.26 155.89,-6.41 122.76,-13.21 96.09,-19.54"/>
<polygon fill="blue" stroke="blue" stroke-width="2" points="95.09,-16.18 86.2,-21.94 96.74,-22.99 95.09,-16.18"/>
</a>
</g>
<g id="a_edge3&#45;label"><a xlink:href="https://www.wikidata.org/wiki/Property:P1416" xlink:title="affiliation">
<text text-anchor="middle" x="229" y="-7.06" font-family="Helvetica,sans-Serif" font-size="14.00" fill="blue">affiliation</text>
</a>
</g>
</g>
<!-- project -->
<g id="node3" class="node">
<title>project</title>
<g id="a_node3"><a xlink:href="https://www.wikidata.org/wiki/Q1298668" xlink:title="project">
<polygon fill="none" stroke="blue" stroke-width="2" points="261,-135.26 197,-135.26 197,-99.26 261,-99.26 261,-135.26"/>
<text text-anchor="middle" x="229" y="-113.56" font-family="Helvetica,sans-Serif" font-size="14.00" fill="blue">project</text>
</a>
</g>
</g>
<!-- researcher&#45;&gt;project -->
<g id="edge4" class="edge">
<title>researcher&#45;&gt;project</title>
<g id="a_edge4"><a xlink:href="https://www.wikidata.org/wiki/Property:P1344" xlink:title="participant in">
<path fill="none" stroke="blue" stroke-width="2" d="M400.97,-60.01C362.74,-72.81 307.82,-91.2 270.63,-103.66"/>
<polygon fill="blue" stroke="blue" stroke-width="2" points="269.47,-100.35 261.1,-106.85 271.7,-106.99 269.47,-100.35"/>
</a>
</g>
<g id="a_edge4&#45;label"><a xlink:href="https://www.wikidata.org/wiki/Property:P1344" xlink:title="participant in">
<text text-anchor="middle" x="336.5" y="-100.06" font-family="Helvetica,sans-Serif" font-size="14.00" fill="blue">participant in</text>
</a>
</g>
</g>
<!-- project&#45;&gt;institution -->
<g id="edge5" class="edge">
<title>project&#45;&gt;institution</title>
<g id="a_edge5"><a xlink:href="https://www.wikidata.org/wiki/Property:P1416" xlink:title="affiliation">
<path fill="none" stroke="blue" stroke-width="2" d="M196.79,-103.01C168.42,-90.06 126.09,-70.74 93.18,-55.71"/>
<polygon fill="blue" stroke="blue" stroke-width="2" points="94.28,-52.37 83.73,-51.4 91.37,-58.74 94.28,-52.37"/>
</a>
</g>
<g id="a_edge5&#45;label"><a xlink:href="https://www.wikidata.org/wiki/Property:P1416" xlink:title="affiliation">
<text text-anchor="middle" x="136" y="-92.06" font-family="Helvetica,sans-Serif" font-size="14.00" fill="blue">affiliation</text>
</a>
</g>
</g>
<!-- grant -->
<g id="node4" class="node">
<title>grant</title>
<g id="a_node4"><a xlink:href="https://www.wikidata.org/wiki/Q4620674" xlink:title="grant">
<polygon fill="none" stroke="blue" stroke-width="2" points="256,-63.26 202,-63.26 202,-27.26 256,-27.26 256,-63.26"/>
<text text-anchor="middle" x="229" y="-41.56" font-family="Helvetica,sans-Serif" font-size="14.00" fill="blue">grant</text>
</a>
</g>
</g>
<!-- project&#45;&gt;grant -->
<g id="edge6" class="edge">
<title>project&#45;&gt;grant</title>
<g id="a_edge6"><a xlink:href="https://www.wikidata.org/wiki/Property:P8324" xlink:title="funded by">
<path fill="none" stroke="blue" stroke-width="2" d="M229,-98.85C229,-91.2 229,-82.16 229,-73.69"/>
<polygon fill="blue" stroke="blue" stroke-width="2" points="232.5,-73.43 229,-63.43 225.5,-73.43 232.5,-73.43"/>
</a>
</g>
<g id="a_edge6&#45;label"><a xlink:href="https://www.wikidata.org/wiki/Property:P8324" xlink:title="funded by">
<text text-anchor="middle" x="239.5" y="-77.56" font-family="Helvetica,sans-Serif" font-size="14.00" fill="blue">funded by</text>
</a>
</g>
</g>
<!-- work -->
<g id="node5" class="node">
<title>work</title>
<g id="a_node5"><a xlink:href="https://www.wikidata.org/wiki/Q13442814" xlink:title="work">
<polygon fill="none" stroke="black" points="473,-168.26 419,-168.26 419,-132.26 473,-132.26 473,-168.26"/>
<text text-anchor="middle" x="446" y="-146.56" font-family="Helvetica,sans-Serif" font-size="14.00">work</text>
</a>
</g>
</g>
<!-- work&#45;&gt;researcher -->
<g id="edge1" class="edge">
<title>work&#45;&gt;researcher</title>
<g id="a_edge1"><a xlink:href="https://www.wikidata.org/wiki/Property:P50" xlink:title="author">
<path fill="none" stroke="black" d="M446,-132.18C446,-116.06 446,-92.21 446,-73.56"/>
<polygon fill="black" stroke="black" points="449.5,-73.55 446,-63.55 442.5,-73.55 449.5,-73.55"/>
</a>
</g>
<g id="a_edge1&#45;label"><a xlink:href="https://www.wikidata.org/wiki/Property:P50" xlink:title="author">
<text text-anchor="middle" x="456.5" y="-94.06" font-family="Helvetica,sans-Serif" font-size="14.00">author</text>
</a>
</g>
</g>
<!-- work&#45;&gt;project -->
<g id="edge7" class="edge">
<title>work&#45;&gt;project</title>
<g id="a_edge7"><a xlink:href="https://www.wikidata.org/wiki/Property:P921" xlink:title="main subject">
<path fill="none" stroke="black" d="M418.64,-146.22C381.78,-140.56 314.52,-130.24 271.07,-123.57"/>
<polygon fill="black" stroke="black" points="271.52,-120.1 261.1,-122.04 270.46,-127.01 271.52,-120.1"/>
</a>
</g>
<g id="a_edge7&#45;label"><a xlink:href="https://www.wikidata.org/wiki/Property:P921" xlink:title="main subject">
<text text-anchor="middle" x="336.5" y="-145.06" font-family="Helvetica,sans-Serif" font-size="14.00">main subject</text>
</a>
</g>
</g>
<!-- work&#45;&gt;work -->
<g id="edge8" class="edge">
<title>work&#45;&gt;work</title>
<g id="a_edge8"><a xlink:href="https://www.wikidata.org/wiki/Property:P2860" xlink:title="cites">
<path fill="none" stroke="black" d="M465.54,-168.42C468.54,-177.8 462.03,-186.26 446,-186.26 436.23,-186.26 430,-183.12 427.3,-178.54"/>
<polygon fill="black" stroke="black" points="430.77,-178.09 426.46,-168.42 423.8,-178.67 430.77,-178.09"/>
</a>
</g>
<g id="a_edge8&#45;label"><a xlink:href="https://www.wikidata.org/wiki/Property:P2860" xlink:title="cites">
<text text-anchor="middle" x="446" y="-190.06" font-family="Helvetica,sans-Serif" font-size="14.00">cites</text>
</a>
</g>
</g>
<!-- venue -->
<g id="node6" class="node">
<title>venue</title>
<g id="a_node6"><a xlink:href="https://www.wikidata.org/wiki/Q1143604" xlink:title="venue">
<polygon fill="none" stroke="black" points="72.5,-189.26 13.5,-189.26 13.5,-153.26 72.5,-153.26 72.5,-189.26"/>
<text text-anchor="middle" x="43" y="-167.56" font-family="Helvetica,sans-Serif" font-size="14.00">venue</text>
</a>
</g>
</g>
<!-- work&#45;&gt;venue -->
<g id="edge9" class="edge">
<title>work&#45;&gt;venue</title>
<g id="a_edge9"><a xlink:href="https://www.wikidata.org/wiki/Property:P1433" xlink:title="published in">
<path fill="none" stroke="black" d="M418.79,-153.64C407.76,-154.95 394.77,-156.36 383,-157.26 274.46,-165.62 145.96,-169.21 82.89,-170.56"/>
<polygon fill="black" stroke="black" points="82.54,-167.06 72.61,-170.77 82.68,-174.06 82.54,-167.06"/>
</a>
</g>
<g id="a_edge9&#45;label"><a xlink:href="https://www.wikidata.org/wiki/Property:P1433" xlink:title="published in">
<text text-anchor="middle" x="229" y="-172.06" font-family="Helvetica,sans-Serif" font-size="14.00">published in</text>
</a>
</g>
</g>
</g>
</svg>
